<?xml version="1.0" encoding="UTF-8" standalone="no" ?>
<!DOCTYPE svg PUBLIC "-//W3C//DTD SVG 1.1//EN" "http://www.w3.org/Graphics/SVG/1.1/DTD/svg11.dtd">
<svg xmlns="http://www.w3.org/2000/svg" xmlns:xlink="http://www.w3.org/1999/xlink" version="1.1" width="120" height="60" viewBox="0 0 120 60" xml:space="preserve">
<desc>Created with Fabric.js 3.6.3</desc>
<defs>
</defs>
<g transform="matrix(1.18 0 0 1.18 31.29 31.71)"  >
<g style=""   >
		<g transform="matrix(1 0 0 1 24 -1.5)"  >
<rect style="stroke: none; stroke-width: 1; stroke-dasharray: none; stroke-linecap: butt; stroke-dashoffset: 0; stroke-linejoin: miter; stroke-miterlimit: 4; fill: rgb(255,255,255); fill-rule: nonzero; opacity: 1;"  x="-50" y="-23.5" rx="23.5" ry="23.5" width="100" height="47" />
</g>
		<g transform="matrix(1 0 0 1 24.5 -5.39)"  >
<path style="stroke: none; stroke-width: 1; stroke-dasharray: none; stroke-linecap: butt; stroke-dashoffset: 0; stroke-linejoin: miter; stroke-miterlimit: 4; fill: rgb(35,31,32); fill-rule: nonzero; opacity: 1;"  transform=" translate(-184.5, -58.61)" d="M 194.439 46.416 C 193.578 45.4979 192.378 44.3334 190.731 43.471 C 189.137 42.6364 187.545 42.2096 185.405 42.0423 C 185.046 42.0142 184.684 42 184.33 42 C 179.902 42 176.828 44.1446 175.029 45.9437 C 173.017 47.9549 170.692 51.3549 171.034 56.1315 C 171.287 59.6591 173.308 62.432 174.931 64.6601 L 175 64.7555 C 175.29 65.1527 175.591 65.5417 175.91 65.9545 C 176.914 67.2508 177.952 68.5912 178.697 70.2939 L 178.783 70.4888 C 179.088 71.1799 179.466 72.0399 179.421 72.4825 C 179.388 72.7989 179.251 72.9535 179.093 73.1325 C 178.874 73.3811 178.601 73.6905 178.776 74.3533 C 179.004 75.2135 180.088 75.2135 181.343 75.2135 H 187.885 C 188.92 75.2135 189.991 75.2135 190.219 74.353 C 190.391 73.7055 190.092 73.3425 189.852 73.051 C 189.716 72.8861 189.599 72.7437 189.573 72.565 C 189.451 71.7008 190.384 69.7384 191.303 68.2808 C 191.884 67.3608 192.506 66.5618 193.109 65.7893 C 193.387 65.4322 193.651 65.0948 193.9 64.7574 C 194.032 64.5787 194.165 64.4001 194.299 64.2219 C 195.969 61.9829 197.696 59.6681 197.961 56.2264 C 198.336 51.3585 195.915 47.9904 194.439 46.416 Z M 191.948 63.0183 C 191.828 63.1762 191.709 63.3337 191.59 63.491 C 191.382 63.7668 191.174 64.0406 190.965 64.3123 C 189.09 66.7624 187.318 69.0798 186.903 72.6043 H 182.088 C 181.571 68.8779 179.765 66.5013 177.854 63.9885 C 177.706 63.7929 177.556 63.5959 177.406 63.3976 L 177.151 63.0605 C 175.663 61.0972 173.976 58.8721 173.734 56.272 C 173.351 52.1653 175.252 49.3649 176.913 47.7389 C 179.035 45.661 181.597 44.6074 184.525 44.6074 C 184.86 44.6074 185.203 44.6216 185.546 44.6497 C 190.714 45.072 194.89 49.287 195.261 54.4543 C 195.535 58.2897 193.711 60.6935 191.947 63.0183 H 191.948 Z" stroke-linecap="round" />
</g>
		<g transform="matrix(1 0 0 1 24.5 16.56)"  >
<path style="stroke: none; stroke-width: 1; stroke-dasharray: none; stroke-linecap: butt; stroke-dashoffset: 0; stroke-linejoin: miter; stroke-miterlimit: 4; fill: rgb(35,31,32); fill-rule: nonzero; opacity: 1;"  transform=" translate(-184.5, -80.56)" d="M 188.432 79.4802 C 188.011 79.3912 187.404 79.3514 186.462 79.3514 C 185.974 79.3514 185.445 79.3621 184.933 79.3725 C 184.426 79.3826 183.903 79.3933 183.426 79.3933 C 183.216 79.3933 182.998 79.3894 182.768 79.3855 C 182.531 79.3815 182.287 79.3774 182.046 79.3774 C 181.191 79.3774 179.412 79.3774 179.327 80.4984 C 179.303 80.8057 179.403 81.0638 179.622 81.2651 C 180.111 81.7138 181.095 81.7743 181.992 81.7743 C 182.409 81.7743 182.847 81.7588 183.271 81.7438 C 183.688 81.7289 184.083 81.7152 184.451 81.7152 C 184.716 81.7152 185.016 81.7161 185.333 81.7169 C 186.021 81.7188 186.785 81.7211 187.436 81.7152 C 188.542 81.7051 189.588 81.6957 189.668 80.691 C 189.744 79.7583 188.985 79.5976 188.432 79.4802 Z" stroke-linecap="round" />
</g>
</g>
</g>
</svg>