<?xml version="1.0" encoding="UTF-8" standalone="no" ?>
<!DOCTYPE svg PUBLIC "-//W3C//DTD SVG 1.1//EN" "http://www.w3.org/Graphics/SVG/1.1/DTD/svg11.dtd">
<svg xmlns="http://www.w3.org/2000/svg" xmlns:xlink="http://www.w3.org/1999/xlink" version="1.1" width="120" height="60" viewBox="0 0 120 60" xml:space="preserve">
<desc>Created with Fabric.js 3.6.3</desc>
<defs>
</defs>
<g transform="matrix(1.12 0 0 1.12 183.71 39.29)"  >
<g style=""   >
		<g transform="matrix(1 0 0 1 -110 -7.5)"  >
<rect style="stroke: none; stroke-width: 1; stroke-dasharray: none; stroke-linecap: butt; stroke-dashoffset: 0; stroke-linejoin: miter; stroke-miterlimit: 4; fill: rgb(255,255,255); fill-rule: nonzero; opacity: 1;"  x="-50" y="-23.5" rx="23.5" ry="23.5" width="100" height="47" />
</g>
		<g transform="matrix(1 0 0 1 -113.5 -9)"  >
<path style="stroke: none; stroke-width: 1; stroke-dasharray: none; stroke-linecap: butt; stroke-dashoffset: 0; stroke-linejoin: miter; stroke-miterlimit: 4; fill: rgb(0,0,0); fill-rule: nonzero; opacity: 1;"  transform=" translate(-46.5, -55)" d="M 55.5606 43.3307 C 55.5644 43.277 55.5644 43.2232 55.5606 43.1695 C 55.5374 42.0564 55.0693 40.9965 54.2566 40.2171 C 53.4439 39.4377 52.3512 39.0007 51.213 39 C 50.0748 38.9993 48.9815 39.4348 48.1678 40.2132 C 47.354 40.9916 46.8844 42.0508 46.8598 43.1639 C 47.1946 45.2662 48.0738 45.9287 48.7575 47.4842 L 39.2421 47.3011 L 39.0568 56.5304 C 37.2536 55.843 35.9585 54.6074 34.4288 54.5787 C 34.3735 54.5752 34.318 54.5752 34.2627 54.5787 C 33.125 54.601 32.0416 55.0585 31.2447 55.853 C 30.4478 56.6475 30.001 57.7158 30 58.8288 C 29.999 59.9417 30.4439 61.0108 31.2393 61.8066 C 32.0348 62.6025 33.1174 63.0619 34.255 63.0862 C 36.5316 62.74 37.1565 61.7938 38.9622 61.1145 L 38.7705 70.5432 L 48.3275 70.7269 C 47.6425 69.1083 46.7333 68.4608 46.3927 66.3197 C 46.4173 65.2068 46.8867 64.1477 47.7003 63.3694 C 48.5139 62.591 49.6069 62.1555 50.745 62.1562 C 51.883 62.1568 52.9755 62.5936 53.7882 63.3729 C 54.6009 64.1521 55.069 65.2118 55.0922 66.3247 C 55.0954 66.3786 55.0954 66.4327 55.0922 66.4866 C 55.0634 67.924 53.8941 69.1551 53.1753 70.82 L 62.5329 71 L 63 47.7517 L 53.6769 47.5729 C 54.4028 45.9555 55.5324 44.7456 55.5606 43.3307 Z" stroke-linecap="round" />
</g>
</g>
</g>
</svg>